# xmcd CD database file
#
# Track frame offsets:
#	150
#	14065
#	35242
#	53988
#	64933
#	91631
#	113475
#	133680
#
# Disc length: 2095 seconds
#
# Revision: 0
# Processed by: cddbd v1.5.1PL0 Copyright (c) Steve Scherf et al.
# Submitted via: CDex 1.51
#
DISCID=6b082d08
DTITLE=Vanguard - Charge Without Strategy
DYEAR=2002
DGENRE=Heavy Metal
TTITLE0=Rotary
TTITLE1=Water Flushes All Away
TTITLE2=Once In A Lifetime
TTITLE3=The Human Race Fear
TTITLE4=Darkness Spreads Out
TTITLE5=World's Apart
TTITLE6=Road To Nowhere
TTITLE7=Existence
EXTD=YEAR: 2002
EXTT0=
EXTT1=
EXTT2=
EXTT3=
EXTT4=
EXTT5=
EXTT6=
EXTT7=
PLAYORDER=
